<svg width="40" height="40" viewBox="0 0 40 40" fill="none" xmlns="http://www.w3.org/2000/svg">
<path d="M20 26.6663C22.4303 26.6633 24.7601 25.6966 26.4785 23.9781C28.1969 22.2597 29.1637 19.9299 29.1667 17.4997V12.4997C29.1667 10.0685 28.2009 7.73695 26.4819 6.01786C24.7628 4.29878 22.4312 3.33301 20 3.33301C17.5689 3.33301 15.2373 4.29878 13.5182 6.01786C11.7991 7.73695 10.8334 10.0685 10.8334 12.4997V17.4997C10.8364 19.9299 11.8032 22.2597 13.5216 23.9781C15.24 25.6966 17.5698 26.6633 20 26.6663Z" fill="white"/>
<path d="M28.3545 25.4962C27.454 26.8628 26.2321 27.9876 24.7957 28.772C23.3594 29.5564 21.7526 29.9765 20.1161 29.9955C18.4797 30.0144 16.8635 29.6316 15.4094 28.8807C13.9553 28.1297 12.7076 27.0335 11.7757 25.6882C11.524 25.3248 11.1383 25.0762 10.7033 24.9971C10.2684 24.9181 9.81983 25.015 9.45637 25.2667C9.09292 25.5184 8.84432 25.9041 8.76527 26.3391C8.68623 26.774 8.7832 27.2226 9.03487 27.586C10.1038 29.1294 11.4864 30.4298 13.0923 31.4024C14.6982 32.3749 16.4912 32.9975 18.3542 33.2297C18.3519 33.2664 18.3334 33.2964 18.3334 33.333V34.9997C18.3334 35.4417 18.509 35.8657 18.8215 36.1782C19.1341 36.4908 19.558 36.6664 20 36.6664C20.4421 36.6664 20.866 36.4908 21.1786 36.1782C21.4911 35.8657 21.6667 35.4417 21.6667 34.9997V33.333C21.6667 33.2967 21.6484 33.2664 21.646 33.2305C23.5612 32.9944 25.4021 32.3446 27.0411 31.326C28.6801 30.3075 30.0779 28.9447 31.1377 27.332C31.3812 26.963 31.468 26.5123 31.3792 26.0792C31.2904 25.6461 31.0331 25.266 30.664 25.0225C30.295 24.7791 29.8443 24.6922 29.4112 24.7811C28.9781 24.8699 28.598 25.1271 28.3545 25.4962Z" fill="white"/>
</svg>
